<svg width="86" height="83" viewBox="0 0 86 83" fill="none" xmlns="http://www.w3.org/2000/svg">
<path d="M29.491 4.08391C34.0125 5.12573 39.232 12.6425 39.3466 19.6018C39.3702 19.8615 39.2956 20.1207 39.1374 20.328C38.9792 20.5354 38.7491 20.6759 38.4923 20.7217C35.7523 21.1854 34.424 21.8104 31.9393 23.2377C31.4184 23.5815 30.7516 23.2377 30.3766 22.7168C25.1414 14.8615 24.9695 9.1732 27.5793 4.80798C28.1992 4.06829 28.5898 3.87034 29.491 4.08391Z" fill="#231F20"/>
<path d="M41.9566 23.972C41.8681 23.9661 41.7795 23.9803 41.6973 24.0135C41.6151 24.0466 41.5415 24.0979 41.4819 24.1635C41.4223 24.2291 41.3783 24.3074 41.3531 24.3924C41.328 24.4773 41.3224 24.5669 41.3367 24.6544C41.6023 26.264 42.3212 28.5091 42.4931 29.3947C42.496 29.4066 42.496 29.4191 42.4931 29.4311C43.3109 32.4159 44.9257 32.8535 45.7644 32.8639C45.8109 32.8647 45.8567 32.8761 45.8982 32.8973C45.9397 32.9184 45.9759 32.9486 46.004 32.9857C46.032 33.0229 46.0513 33.0659 46.0604 33.1116C46.0694 33.1572 46.0679 33.2044 46.0561 33.2494L43.6808 42.6257C43.6808 42.6257 43.6808 42.6674 43.6443 42.6935L41.3992 36.9635C41.3684 36.8901 41.3525 36.8113 41.3525 36.7317C41.3525 36.6521 41.3684 36.5733 41.3992 36.4999C41.4599 36.4026 41.4894 36.2891 41.4838 36.1746C41.4782 36.0601 41.4378 35.95 41.3679 35.8591C41.3167 35.7976 41.252 35.7486 41.1789 35.7161C41.1057 35.6835 41.026 35.6683 40.946 35.6716C40.8153 35.6743 40.6897 35.7223 40.5906 35.8075C40.4915 35.8927 40.4252 36.0098 40.403 36.1386C40.3808 36.2674 40.4041 36.3999 40.469 36.5133C40.5339 36.6268 40.6362 36.7141 40.7585 36.7603C40.8348 36.7859 40.9042 36.8289 40.9611 36.8858C41.0181 36.9428 41.061 37.0121 41.0866 37.0885L43.3317 42.8185L43.2432 42.7872L35.3566 37.6823C35.289 37.6372 35.2315 37.5786 35.1877 37.5102C35.1438 37.4418 35.1146 37.3651 35.1019 37.2848C35.0892 37.2046 35.0932 37.1226 35.1138 37.0439C35.1343 36.9653 35.1709 36.8918 35.2212 36.828C35.7421 36.1196 36.263 35.0048 35.0285 32.3847C34.6534 31.5929 33.5751 29.3582 32.7052 27.9778C32.6579 27.9028 32.5942 27.8395 32.519 27.7926C32.4437 27.7457 32.3589 27.7164 32.2707 27.7069C32.1826 27.6974 32.0934 27.7079 32.0099 27.7377C31.9264 27.7674 31.8507 27.8157 31.7884 27.8788C26.496 33.3067 24.1363 40.1202 26.6939 46.6628C29.2516 53.2054 35.117 57.331 41.0033 57.8727C41.0552 57.8771 41.1073 57.8682 41.1548 57.8469C41.2023 57.8256 41.2437 57.7926 41.2749 57.7509C41.3062 57.7092 41.3263 57.6603 41.3335 57.6087C41.3406 57.5572 41.3346 57.5046 41.3158 57.456L37.6695 42.9591C37.5288 42.3549 37.9976 42.2924 38.2477 42.4382L44.4986 46.0221C44.5381 46.0425 44.5816 46.0542 44.626 46.0565C44.6705 46.0588 44.7149 46.0516 44.7563 46.0353C44.7978 46.019 44.8352 45.9941 44.8662 45.9622C44.8973 45.9302 44.9211 45.892 44.9361 45.8502L47.0198 39.4222C47.15 38.9377 47.5407 38.8283 47.7491 39.2659L54.7397 52.2626C54.7589 52.312 54.7903 52.3557 54.8311 52.3897C54.8718 52.4236 54.9206 52.4466 54.9727 52.4565C55.0248 52.4664 55.0785 52.4629 55.1289 52.4462C55.1793 52.4296 55.2246 52.4005 55.2606 52.3615C59.2455 47.9911 60.5113 41.0161 57.9537 34.4631C55.396 27.9101 47.9105 24.4616 41.9566 23.972Z" fill="#231F20"/>
<path d="M41.7321 60.707C38.7409 60.6346 35.8043 59.8895 33.1404 58.5269C30.4765 57.1643 28.1538 55.2192 26.3445 52.836C24.4841 50.3393 23.2224 47.4484 22.657 44.3865C22.0916 41.3246 22.2375 38.1737 23.0836 35.1772C24.1244 31.6394 26.0834 28.4402 28.7615 25.905C30.4649 24.2642 27.8708 21.6753 26.157 23.3005C23.4366 25.8867 21.3578 29.0724 20.0863 32.604C18.8147 36.1355 18.3856 39.9153 18.833 43.642C19.2817 47.2238 20.5379 50.657 22.5068 53.6826C24.4758 56.7082 27.106 59.2472 30.1992 61.1081C33.6937 63.1667 37.6613 64.2865 41.7165 64.3585C44.071 64.4002 44.071 60.7122 41.7165 60.7122L41.7321 60.707Z" fill="#231F20"/>
<path d="M59.2812 57.1701C64.9539 51.961 67.0375 44.1943 65.7144 36.714C64.8211 31.1866 62.0244 26.145 57.8078 22.4611C53.5912 18.7772 48.2199 16.6825 42.6225 16.5392C42.3667 16.5118 42.108 16.5386 41.8633 16.6177C41.6185 16.6969 41.3931 16.8266 41.2017 16.9986C41.0104 17.1705 40.8574 17.3808 40.7526 17.6158C40.6479 17.8508 40.5938 18.1052 40.5938 18.3624C40.5938 18.6197 40.6479 18.874 40.7526 19.109C40.8574 19.344 41.0104 19.5543 41.2017 19.7262C41.3931 19.8982 41.6185 20.0279 41.8633 20.1071C42.108 20.1862 42.3667 20.213 42.6225 20.1856C46.4372 20.304 50.1421 21.4897 53.3168 23.608C53.9164 23.9958 54.489 24.424 55.0306 24.8894C56.126 25.8337 57.129 26.8802 58.0258 28.0149C61.7764 32.9218 63.3599 39.5165 62.016 45.4236C61.2269 48.9486 59.3675 52.1435 56.6923 54.5708C54.9524 56.1752 57.5518 58.7381 59.2968 57.1753L59.2812 57.1701Z" fill="#231F20"/>
<path d="M36.6594 25.3247C39.272 24.304 41.2101 23.016 40.9881 22.4479C40.7662 21.8798 38.4683 22.2468 35.8556 23.2675C33.243 24.2883 31.3049 25.5762 31.5269 26.1443C31.7488 26.7124 34.0467 26.3455 36.6594 25.3247Z" fill="#231F20"/>
<path d="M40.6225 46.1578L45.5659 48.7623C45.6052 48.7856 45.6494 48.7994 45.6949 48.8029C45.7404 48.8063 45.7862 48.7991 45.8285 48.782C45.8708 48.7649 45.9086 48.7382 45.939 48.7041C45.9693 48.6699 45.9914 48.6293 46.0035 48.5852L47.7277 43.3084C47.8631 42.8865 48.1236 42.8708 48.3007 43.2771L55.3277 59.1649C55.3819 59.2965 55.3902 59.4425 55.3515 59.5794C55.3128 59.7164 55.2292 59.8364 55.1142 59.9202L54.338 60.4411C54.2641 60.4984 54.1778 60.5375 54.0859 60.5552C53.9941 60.5728 53.8994 60.5685 53.8095 60.5426C53.7196 60.5167 53.6371 60.47 53.5688 60.4062C53.5004 60.3424 53.448 60.2633 53.416 60.1754L49.181 50.1375C48.9674 49.6166 48.7018 49.6479 48.5924 50.1948L47.9413 53.5026C47.9385 53.5581 47.9197 53.6116 47.8871 53.6566C47.8545 53.7016 47.8095 53.7361 47.7576 53.756C47.7057 53.7759 47.6491 53.7802 47.5948 53.7685C47.5405 53.7568 47.4907 53.7296 47.4516 53.6901L44.8471 51.7002C44.4147 51.3721 44.1959 51.5231 44.3626 52.0388L47.7277 62.4935C47.758 62.5772 47.7692 62.6667 47.7606 62.7554C47.752 62.8441 47.7237 62.9297 47.6778 63.006C47.6319 63.0824 47.5695 63.1476 47.4952 63.1968C47.421 63.246 47.3367 63.278 47.2484 63.2905L45.9045 63.5301C45.7564 63.5536 45.6047 63.5235 45.4767 63.4452C45.3488 63.3669 45.253 63.2456 45.2065 63.1029L40.1641 46.5172C40.0651 46.1265 40.2631 45.965 40.6225 46.1578Z" fill="#231F20"/>
<path d="M29.4912 4.08398C34.5284 5.91237 37.8883 10.2359 39.3468 19.6019C39.3809 19.8635 39.3103 20.128 39.1503 20.3377C38.9903 20.5475 38.7538 20.6856 38.4925 20.7218" fill="#231F20"/>
<path d="M60.6049 20.7376L59.9746 20.175L59.9017 20.1177C54.4165 16.0754 53.4476 15.8931 46.9675 14.1741H46.8529L45.8111 14.023C45.6496 14.0124 45.4952 13.9532 45.368 13.8533C45.2408 13.7533 45.1468 13.6172 45.0983 13.4628C45.0499 13.3084 45.0492 13.143 45.0965 12.9883C45.1437 12.8335 45.2367 12.6967 45.3631 12.5957L60.7247 0.203325C60.8683 0.09194 61.0403 0.023185 61.2211 0.00491133C61.4019 -0.0133623 61.5842 0.0195822 61.7472 0.0999836C61.9102 0.180385 62.0473 0.305002 62.1428 0.4596C62.2383 0.614198 62.2884 0.792545 62.2874 0.974271L61.9384 20.2479C61.9392 20.4032 61.8921 20.5549 61.8035 20.6824C61.7149 20.81 61.5892 20.9071 61.4435 20.9606C61.2977 21.0141 61.139 21.0214 60.989 20.9815C60.8389 20.9416 60.7048 20.8564 60.6049 20.7376Z" fill="#231F20"/>
<path d="M68.7728 44.376L68.6165 45.2094C68.6189 45.2371 68.6189 45.265 68.6165 45.2928C66.7517 51.8406 66.1005 52.5855 62.0322 57.904L61.9541 57.9873L61.2092 58.7583C61.0885 58.8657 61.0031 59.007 60.9641 59.1638C60.9252 59.3206 60.9344 59.4855 60.9907 59.6369C61.047 59.7884 61.1477 59.9193 61.2796 60.0125C61.4116 60.1057 61.5686 60.157 61.7301 60.1595L81.4413 60.5502C81.6239 60.5533 81.8035 60.5044 81.9594 60.4093C82.1153 60.3142 82.2409 60.1767 82.3217 60.013C82.4025 59.8492 82.4351 59.6659 82.4157 59.4843C82.3963 59.3028 82.3258 59.1305 82.2122 58.9875L70.1324 43.9801C70.0404 43.8564 69.9128 43.7637 69.7667 43.7146C69.6206 43.6655 69.463 43.6623 69.315 43.7054C69.167 43.7485 69.0357 43.8359 68.9388 43.9557C68.8419 44.0756 68.7839 44.2222 68.7728 44.376Z" fill="#231F20"/>
<path d="M63.579 24.1856L64.0999 24.9201L64.1468 24.993C67.7307 31.2439 67.7932 32.2857 68.835 39.2711C68.8401 39.3091 68.8401 39.3477 68.835 39.3857L68.8715 40.5213C68.8629 40.692 68.9064 40.8613 68.9961 41.0067C69.0859 41.1521 69.2177 41.2669 69.3741 41.3358C69.5305 41.4047 69.7042 41.4245 69.8721 41.3925C70.04 41.3605 70.1942 41.2783 70.3144 41.1568L85.2124 26.4463C85.3432 26.3174 85.4345 26.1537 85.4754 25.9746C85.5163 25.7955 85.5052 25.6084 85.4434 25.4355C85.3815 25.2625 85.2715 25.1108 85.1263 24.9982C84.9811 24.8857 84.8067 24.817 84.6237 24.8003L64.2875 22.8416C64.1209 22.8117 63.9491 22.8356 63.7971 22.9098C63.645 22.9841 63.5205 23.1048 63.4416 23.2544C63.3627 23.4041 63.3334 23.5751 63.3582 23.7425C63.3829 23.9099 63.4602 24.0651 63.579 24.1856Z" fill="#231F20"/>
<path d="M15.5774 38.6566L15.666 37.8128C15.6637 37.7833 15.6637 37.7537 15.666 37.7242C16.963 31.0357 17.5517 30.244 21.1511 24.5869L21.2189 24.4983L21.896 23.6649C22.0078 23.5479 22.0816 23.3998 22.1077 23.2401C22.1337 23.0804 22.1109 22.9165 22.0422 22.77C21.9734 22.6235 21.862 22.5013 21.7225 22.4192C21.583 22.3372 21.422 22.2993 21.2605 22.3105L1.57018 23.6128C1.39138 23.63 1.2209 23.6966 1.07778 23.8052C0.93465 23.9137 0.824514 24.0599 0.75967 24.2274C0.694826 24.3949 0.677826 24.5772 0.710569 24.7538C0.743311 24.9304 0.824507 25.0945 0.945088 25.2276L14.2804 39.1828C14.384 39.2932 14.5187 39.3698 14.6667 39.4022C14.8146 39.4347 14.969 39.4216 15.1094 39.3646C15.2498 39.3077 15.3696 39.2096 15.4532 39.0832C15.5367 38.9568 15.58 38.8081 15.5774 38.6566Z" fill="#231F20"/>
<path d="M25.4068 61.6913L26.0996 62.181C26.1205 62.2013 26.1453 62.2173 26.1725 62.2279C32.064 65.6398 33.0433 65.718 39.6745 66.7129H39.7891L40.8309 66.7441C40.9917 66.7391 41.1504 66.7822 41.2866 66.8679C41.4228 66.9536 41.5302 67.0781 41.5951 67.2253C41.6601 67.3725 41.6795 67.5358 41.651 67.6942C41.6225 67.8526 41.5474 67.9988 41.4352 68.1141L27.5634 82.1318C27.4344 82.2627 27.2707 82.3539 27.0916 82.3948C26.9125 82.4358 26.7255 82.4246 26.5525 82.3628C26.3795 82.3009 26.2278 82.1909 26.1152 82.0457C26.0027 81.9005 25.934 81.7261 25.9173 81.5432L24.1462 62.3633C24.1214 62.208 24.1456 62.0488 24.2157 61.9079C24.2857 61.767 24.3979 61.6515 24.5367 61.5775C24.6755 61.5036 24.834 61.4748 24.99 61.4951C25.146 61.5155 25.2917 61.5841 25.4068 61.6913Z" fill="#231F20"/>
<path d="M15.8015 43.1626L15.9213 44.0534V44.1419C17.5153 51.1586 18.156 51.9556 22.1722 57.8158L22.24 57.9096L22.9901 58.7638C23.1103 58.8844 23.1915 59.0384 23.2232 59.2058C23.2548 59.3731 23.2353 59.5461 23.1674 59.7022C23.0994 59.8584 22.986 59.9905 22.842 60.0814C22.698 60.1723 22.53 60.2178 22.3598 60.212L1.43486 59.4983C1.25076 59.4918 1.07233 59.433 0.920466 59.3288C0.768607 59.2245 0.649618 59.0791 0.57745 58.9096C0.505282 58.7401 0.482926 58.5536 0.513001 58.3718C0.543077 58.1901 0.624338 58.0207 0.747259 57.8835L14.4003 42.6573C14.5056 42.5348 14.6456 42.4472 14.8018 42.4061C14.958 42.365 15.1231 42.3723 15.275 42.4271C15.427 42.4819 15.5587 42.5816 15.6527 42.713C15.7467 42.8443 15.7986 43.0011 15.8015 43.1626Z" fill="#231F20"/>
<path d="M44.3835 67.364L45.2274 67.2806H45.3159C52.0096 66.02 52.8014 65.4418 58.4741 61.8684L58.5678 61.8007L59.4013 61.1287C59.5192 61.0179 59.6678 60.9454 59.8277 60.9206C59.9875 60.8958 60.1511 60.9199 60.297 60.9898C60.4429 61.0596 60.5643 61.172 60.6452 61.312C60.7261 61.4521 60.7628 61.6133 60.7505 61.7746L59.344 81.4389C59.3307 81.6222 59.2655 81.7979 59.1561 81.9456C59.0467 82.0932 58.8975 82.2067 58.726 82.2728C58.5546 82.3389 58.3678 82.3548 58.1876 82.3188C58.0075 82.2827 57.8412 82.1962 57.7083 82.0692L43.8574 68.6871C43.7367 68.5857 43.6511 68.4489 43.6126 68.296C43.5741 68.1432 43.5847 67.9821 43.6429 67.8357C43.7012 67.6892 43.8041 67.5648 43.937 67.4801C44.0699 67.3955 44.2261 67.3548 44.3835 67.364Z" fill="#231F20"/>
</svg>
